<svg width="430" height="430" viewBox="0 0 430 430" fill="none" xmlns="http://www.w3.org/2000/svg">
<path d="M215 241.69V188.32H235C237.25 188.319 239.479 188.761 241.558 189.621C243.638 190.481 245.527 191.743 247.119 193.334C248.711 194.925 249.974 196.813 250.835 198.892C251.697 200.971 252.14 203.2 252.14 205.45V205.45C252.14 209.996 250.334 214.356 247.12 217.57C243.905 220.784 239.546 222.59 235 222.59H215" stroke="#121331" stroke-width="7" stroke-linecap="round" stroke-linejoin="round"/>
<path d="M275.26 241.69V188.41" stroke="#121331" stroke-width="7" stroke-linecap="round" stroke-linejoin="round"/>
<path d="M192.13 241.69L178.48 188.31H162.32L147 241.69" stroke="#121331" stroke-width="7" stroke-linecap="round" stroke-linejoin="round"/>
<path d="M150.869 229.15H188.649" stroke="#121331" stroke-width="7" stroke-linecap="round" stroke-linejoin="round"/>
<path fill-rule="evenodd" clip-rule="evenodd" d="M185 45C173.954 45 165 53.9543 165 65V81.5187C150.125 87.093 136.431 95.0824 124.394 105.009L109.999 96.6987C100.434 91.1759 88.2018 94.4534 82.6789 104.019L52.6789 155.981C47.1561 165.547 50.4336 177.778 59.9994 183.301L74.4086 191.62C73.1531 199.227 72.5 207.037 72.5 215C72.5 222.963 73.1531 230.773 74.4086 238.38L59.9994 246.699C50.4336 252.222 47.1561 264.453 52.6789 274.019L82.6789 325.981C88.2018 335.547 100.434 338.824 109.999 333.301L124.394 324.991C136.431 334.918 150.125 342.907 165 348.481V365C165 376.046 173.954 385 185 385H245C256.046 385 265 376.046 265 365V348.481C279.874 342.907 293.569 334.918 305.606 324.991L320 333.301C329.566 338.824 341.798 335.547 347.321 325.981L377.321 274.019C382.844 264.453 379.566 252.222 370 246.699L355.591 238.38C356.847 230.773 357.5 222.963 357.5 215C357.5 207.037 356.847 199.227 355.591 191.62L370 183.301C379.566 177.778 382.844 165.547 377.321 155.981L347.321 104.019C341.798 94.4534 329.566 91.1759 320 96.6987L305.606 105.009C293.569 95.0823 279.874 87.093 265 81.5187V65C265 53.9543 256.046 45 245 45H185ZM215 320C272.99 320 320 272.99 320 215C320 157.01 272.99 110 215 110C157.01 110 110 157.01 110 215C110 272.99 157.01 320 215 320Z" fill="#3A3347"/>
<g style="mix-blend-mode:multiply" opacity="0.5">
<path d="M185 45C173.954 45 165 53.9543 165 65V81.5187C150.125 87.093 136.431 95.0824 124.394 105.009L109.999 96.6987C100.434 91.1759 88.2018 94.4534 82.6789 104.019L52.6789 155.981C47.1561 165.547 50.4336 177.778 59.9994 183.301L74.4086 191.62C73.1531 199.227 72.5 207.037 72.5 215C72.5 222.963 73.1531 230.773 74.4086 238.38L59.9994 246.699C50.4336 252.222 47.1561 264.453 52.6789 274.019L82.6789 325.981C88.2018 335.547 100.434 338.824 109.999 333.301L124.394 324.991C136.431 334.918 150.125 342.907 165 348.481V365C165 376.046 173.954 385 185 385H215V320C157.01 320 110 272.99 110 215C110 157.01 157.01 110 215 110V45H185Z" fill="#3A3347"/>
</g>
<path fill-rule="evenodd" clip-rule="evenodd" d="M185 45C173.954 45 165 53.9543 165 65V81.5187C150.125 87.093 136.431 95.0824 124.394 105.009L109.999 96.6987C100.434 91.1759 88.2018 94.4534 82.6789 104.019L52.6789 155.981C47.1561 165.547 50.4336 177.778 59.9994 183.301L74.4086 191.62C73.1531 199.227 72.5 207.037 72.5 215C72.5 222.963 73.1531 230.773 74.4086 238.38L59.9994 246.699C50.4336 252.222 47.1561 264.453 52.6789 274.019L82.6789 325.981C88.2018 335.547 100.434 338.824 109.999 333.301L124.394 324.991C136.431 334.918 150.125 342.907 165 348.481V365C165 376.046 173.954 385 185 385H245C256.046 385 265 376.046 265 365V348.481C279.874 342.907 293.569 334.918 305.606 324.991L320 333.301C329.566 338.824 341.798 335.547 347.321 325.981L377.321 274.019C382.844 264.453 379.566 252.222 370 246.699L355.591 238.38C356.847 230.773 357.5 222.963 357.5 215C357.5 207.037 356.847 199.227 355.591 191.62L370 183.301C379.566 177.778 382.844 165.547 377.321 155.981L347.321 104.019C341.798 94.4534 329.566 91.1759 320 96.6987L305.606 105.009C293.569 95.0823 279.874 87.093 265 81.5187V65C265 53.9543 256.046 45 245 45H185ZM215 320C272.99 320 320 272.99 320 215C320 157.01 272.99 110 215 110C157.01 110 110 157.01 110 215C110 272.99 157.01 320 215 320Z" stroke="#121331" stroke-width="7" stroke-linejoin="round"/>
</svg>
